<svg xmlns="http://www.w3.org/2000/svg" viewBox="0 0 64 64" role="img" aria-label="Syniq">
  <rect width="64" height="64" rx="14" fill="#101215" />
  <path
    fill="#9cbcff"
    d="M18 20.5C18 16.9 20.9 14 24.5 14h15C43.1 14 46 16.9 46 20.5S43.1 27 39.5 27h-15C20.9 27 18 24.1 18 20.5Z"
  />
  <path
    fill="#8de0c0"
    d="M18 43.5C18 39.9 20.9 37 24.5 37h15C43.1 37 46 39.9 46 43.5S43.1 50 39.5 50h-15C20.9 50 18 47.1 18 43.5Z"
  />
  <path
    fill="#f4f7fb"
    d="M26 32a6 6 0 0 1 6-6h6a6 6 0 0 1 0 12h-6a6 6 0 0 1-6-6Z"
  />
</svg>
